<?xml version="1.0" encoding="UTF-8" standalone="no"?>
<svg width="50px" height="50px" viewBox="0 0 50 50" version="1.1" xmlns="http://www.w3.org/2000/svg" xmlns:xlink="http://www.w3.org/1999/xlink">
    <!-- Generator: Sketch 40.3 (33839) - http://www.bohemiancoding.com/sketch -->
    <title>img_arrow_white_left</title>
    <desc>Created with Sketch.</desc>
    <defs></defs>
    <g id="assets" stroke="none" stroke-width="1" fill="none" fill-rule="evenodd">
        <path d="M17.2222188,25 C20.9375724,29.1377451 24.6314532,33.2947321 28.3333282,37.4444685 L29.6666873,36.2777793 L19.611092,25 L29.6666873,13.7499216 L28.3333282,12.5555315 C24.6093297,16.6854683 20.9623916,20.8845643 17.2222188,25 M2.77778122,25 C2.77778122,12.716531 12.7164381,2.77778122 25,2.77778122 C37.2835619,2.77778122 47.2222188,12.716531 47.2222188,25 C47.2222188,37.2835619 37.2835619,47.2222188 25,47.2222188 C12.7164381,47.2222188 2.77778122,37.2835619 2.77778122,25 M1,25 C1,38.2443539 11.7557391,49 25,49 C38.2442609,49 49,38.2443539 49,25 C49,11.7557391 38.2442609,1 25,1 C11.7557391,1 1,11.7557391 1,25" id="Page-1" fill="#FFFFFF"></path>
    </g>
</svg>