<?xml version="1.0" encoding="UTF-8" standalone="no"?>
<svg width="19px" height="20px" viewBox="0 0 19 20" version="1.1" xmlns="http://www.w3.org/2000/svg" xmlns:xlink="http://www.w3.org/1999/xlink">
    <!-- Generator: Sketch 40.1 (33804) - http://www.bohemiancoding.com/sketch -->
    <title>ic_dates</title>
    <desc>Created with Sketch.</desc>
    <defs></defs>
    <g id="Widget-Desktop" stroke="none" stroke-width="1" fill="none" fill-rule="evenodd">
        <path d="M3.66666667,16.9868996 L15.3333333,16.9868996 L15.3333333,7.82823872 L3.66666667,7.82823872 L3.66666667,16.9868996 Z M12.8333333,2 L12.8333333,3.66521106 L6.16666667,3.66521106 L6.16666667,2 L4.5,2 L4.5,3.66521106 L3.66666667,3.66521106 C2.74166667,3.66521106 2.00833333,4.41455604 2.00833333,5.33042213 L2,16.9868996 C2,17.9027656 2.74166667,18.6521106 3.66666667,18.6521106 L15.3333333,18.6521106 C16.25,18.6521106 17,17.9027656 17,16.9868996 L17,5.33042213 C17,4.41455604 16.25,3.66521106 15.3333333,3.66521106 L14.5,3.66521106 L14.5,2 L12.8333333,2 Z M9.5,15.3216885 L13.6666667,15.3216885 L13.6666667,11.1586608 L9.5,11.1586608 L9.5,15.3216885 Z" id="Page-1-Copy-25" fill="#0099FF"></path>
    </g>
</svg>