<?xml version="1.0" encoding="UTF-8" standalone="no"?>
<svg width="20px" height="20px" viewBox="0 0 20 20" version="1.1" xmlns="http://www.w3.org/2000/svg" xmlns:xlink="http://www.w3.org/1999/xlink">
    <!-- Generator: Sketch 40.1 (33804) - http://www.bohemiancoding.com/sketch -->
    <title>ic_whereto_location_pin</title>
    <desc>Created with Sketch.</desc>
    <defs></defs>
    <g id="Widget-Desktop" stroke="none" stroke-width="1" fill="none" fill-rule="evenodd">
        <path d="M10.4786363,18.7321617 C10.4786363,18.7321617 16,11.5642179 16,7.80589455 C16,4.04757121 13.3135705,1 9.99987867,1 C6.68618688,1 4,4.04757121 4,7.80589455 C4,11.5642179 9.52403292,18.7360442 9.52403292,18.7360442 C9.78658524,19.0886297 10.2151133,19.0886297 10.4786363,18.7321617 L10.4786363,18.7321617 Z M9.99987867,9.98498439 C11.6567246,9.98498439 12.999818,8.6438007 12.999818,6.98982782 C12.999818,5.33658293 11.6567246,3.99539923 9.99987867,3.99539923 C8.34303278,3.99539923 6.99993934,5.33658293 6.99993934,6.98982782 C6.99993934,8.6438007 8.34303278,9.98498439 9.99987867,9.98498439 L9.99987867,9.98498439 Z" id="Page-1-Copy-17" fill="#1093F5"></path>
    </g>
</svg>